# Blender 3.6.2
# www.blender.org
mtllib Building5.mtl
o Building5
v -3.020883 0.000000 -11.775900
v -3.020883 4.914769 -11.775900
v -0.402359 0.000000 -17.174358
v -0.402359 4.914769 -17.174358
v -1.221397 0.000000 -10.903057
v -1.221397 4.914769 -10.903057
v 1.397126 0.000000 -16.301517
v 1.397126 4.914769 -16.301517
vn -0.8997 -0.0000 -0.4364
vn 0.4364 -0.0000 -0.8997
vn 0.8997 -0.0000 0.4364
vn -0.4364 -0.0000 0.8997
vn -0.0000 -1.0000 -0.0000
vn -0.0000 1.0000 -0.0000
vt 0.625000 0.000000
vt 0.375000 0.250000
vt 0.375000 0.000000
vt 0.625000 0.250000
vt 0.375000 0.500000
vt 0.625000 0.500000
vt 0.375000 0.750000
vt 0.625000 0.750000
vt 0.375000 1.000000
vt 0.125000 0.750000
vt 0.125000 0.500000
vt 0.875000 0.750000
vt 0.625000 1.000000
vt 0.875000 0.500000
s 0
f 2/1/1 3/2/1 1/3/1
f 4/4/2 7/5/2 3/2/2
f 8/6/3 5/7/3 7/5/3
f 6/8/4 1/9/4 5/7/4
f 7/5/5 1/10/5 3/11/5
f 8/6/6 2/12/6 6/8/6
f 2/1/1 4/4/1 3/2/1
f 4/4/2 8/6/2 7/5/2
f 8/6/3 6/8/3 5/7/3
f 6/8/4 2/13/4 1/9/4
f 7/5/5 5/7/5 1/10/5
f 8/6/6 4/14/6 2/12/6
