# Blender 3.6.2
# www.blender.org
mtllib Cone3.mtl
o Cone3
v 2.194521 -0.000000 3.925982
v 2.225172 -0.000000 3.929001
v 2.254646 -0.000000 3.937942
v 2.281808 -0.000000 3.952461
v 2.305617 -0.000000 3.971999
v 2.325156 -0.000000 3.995808
v 2.339675 -0.000000 4.022971
v 2.348616 -0.000000 4.052444
v 2.351634 -0.000000 4.083096
v 2.348616 -0.000000 4.113747
v 2.339675 -0.000000 4.143220
v 2.325156 -0.000000 4.170383
v 2.305617 -0.000000 4.194192
v 2.281808 -0.000000 4.213731
v 2.254646 -0.000000 4.228250
v 2.225172 -0.000000 4.237190
v 2.194521 -0.000000 4.240210
v 2.163869 -0.000000 4.237190
v 2.134396 -0.000000 4.228250
v 2.107233 -0.000000 4.213731
v 2.083425 -0.000000 4.194192
v 2.063885 -0.000000 4.170383
v 2.049366 -0.000000 4.143220
v 2.040426 -0.000000 4.113747
v 2.037407 -0.000000 4.083096
v 2.040426 -0.000000 4.052444
v 2.049366 -0.000000 4.022971
v 2.063885 -0.000000 3.995808
v 2.083425 -0.000000 3.971999
v 2.107233 -0.000000 3.952461
v 2.134396 -0.000000 3.937942
v 2.163869 -0.000000 3.929001
v 2.194521 0.744867 4.083096
vn 0.0959 0.2054 -0.9740
vn 0.2841 0.2054 -0.9365
vn 0.4613 0.2054 -0.8631
vn 0.6209 0.2054 -0.7565
vn 0.7565 0.2054 -0.6209
vn 0.8631 0.2054 -0.4613
vn 0.9365 0.2054 -0.2841
vn 0.9740 0.2054 -0.0959
vn 0.9740 0.2054 0.0959
vn 0.9365 0.2054 0.2841
vn 0.8631 0.2054 0.4613
vn 0.7565 0.2054 0.6209
vn 0.6209 0.2054 0.7565
vn 0.4614 0.2054 0.8631
vn 0.2841 0.2054 0.9365
vn 0.0959 0.2054 0.9740
vn -0.0959 0.2054 0.9740
vn -0.2841 0.2054 0.9365
vn -0.4614 0.2054 0.8631
vn -0.6209 0.2054 0.7565
vn -0.7565 0.2054 0.6209
vn -0.8631 0.2054 0.4613
vn -0.9365 0.2054 0.2841
vn -0.9740 0.2054 0.0959
vn -0.9740 0.2054 -0.0959
vn -0.9365 0.2054 -0.2841
vn -0.8631 0.2054 -0.4613
vn -0.7565 0.2054 -0.6209
vn -0.6209 0.2054 -0.7565
vn -0.4613 0.2054 -0.8631
vn -0.0000 -1.0000 -0.0000
vn -0.2841 0.2054 -0.9365
vn -0.0959 0.2054 -0.9740
vt 1.034764 0.178838
vt 0.908144 0.786495
vt 1.013143 0.198125
vt 0.991370 0.217340
vt 0.969401 0.236534
vt 0.947199 0.255761
vt 0.924727 0.275079
vt 0.901954 0.294549
vt 0.878855 0.314230
vt 0.855411 0.334179
vt 0.831609 0.354448
vt 0.807450 0.375080
vt 0.782948 0.396101
vt 0.758134 0.417520
vt 0.733059 0.439324
vt 0.707792 0.461476
vt 0.682424 0.483915
vt 0.657055 0.506564
vt 0.631792 0.529331
vt 0.606737 0.552120
vt 0.581979 0.574838
vt 0.557588 0.597404
vt 0.533607 0.619753
vt 0.510056 0.641834
vt 0.486930 0.663617
vt 0.464201 0.685083
vt 0.441831 0.706229
vt 0.419764 0.727060
vt 0.397943 0.747590
vt 0.376305 0.767838
vt 0.354786 0.787827
vt 0.333326 0.807588
vt 1.056279 0.159433
vt 0.311866 0.827152
vt 0.290350 0.846557
vt 1.186244 0.038510
vt 1.164178 0.059341
vt 1.142357 0.079871
vt 1.120718 0.100119
vt 1.099200 0.120109
vt 1.077740 0.139869
s 0
f 1/1/1 33/2/1 2/3/1
f 2/3/2 33/2/2 3/4/2
f 3/4/3 33/2/3 4/5/3
f 4/5/4 33/2/4 5/6/4
f 5/6/5 33/2/5 6/7/5
f 6/7/6 33/2/6 7/8/6
f 7/8/7 33/2/7 8/9/7
f 8/9/8 33/2/8 9/10/8
f 9/10/9 33/2/9 10/11/9
f 10/11/10 33/2/10 11/12/10
f 11/12/11 33/2/11 12/13/11
f 12/13/12 33/2/12 13/14/12
f 13/14/13 33/2/13 14/15/13
f 14/15/14 33/2/14 15/16/14
f 15/16/15 33/2/15 16/17/15
f 16/17/16 33/2/16 17/18/16
f 17/18/17 33/2/17 18/19/17
f 18/19/18 33/2/18 19/20/18
f 19/20/19 33/2/19 20/21/19
f 20/21/20 33/2/20 21/22/20
f 21/22/21 33/2/21 22/23/21
f 22/23/22 33/2/22 23/24/22
f 23/24/23 33/2/23 24/25/23
f 24/25/24 33/2/24 25/26/24
f 25/26/25 33/2/25 26/27/25
f 26/27/26 33/2/26 27/28/26
f 27/28/27 33/2/27 28/29/27
f 28/29/28 33/2/28 29/30/28
f 29/30/29 33/2/29 30/31/29
f 30/31/30 33/2/30 31/32/30
f 16/17/31 24/25/31 32/33/31
f 31/32/32 33/2/32 32/34/32
f 32/34/33 33/2/33 1/35/33
f 32/33/31 1/1/31 2/3/31
f 2/3/31 3/4/31 4/5/31
f 4/5/31 5/6/31 6/7/31
f 6/7/31 7/8/31 8/9/31
f 8/9/31 9/10/31 10/11/31
f 10/11/31 11/12/31 12/13/31
f 12/13/31 13/14/31 14/15/31
f 14/15/31 15/16/31 16/17/31
f 16/17/31 17/18/31 18/19/31
f 18/19/31 19/20/31 20/21/31
f 20/21/31 21/22/31 22/23/31
f 22/23/31 23/24/31 24/25/31
f 24/25/31 25/26/31 26/36/31
f 26/36/31 27/37/31 28/38/31
f 28/38/31 29/39/31 30/40/31
f 30/40/31 31/41/31 32/33/31
f 32/33/31 2/3/31 4/5/31
f 4/5/31 6/7/31 8/9/31
f 8/9/31 10/11/31 12/13/31
f 12/13/31 14/15/31 16/17/31
f 16/17/31 18/19/31 20/21/31
f 20/21/31 22/23/31 24/25/31
f 24/25/31 26/36/31 28/38/31
f 28/38/31 30/40/31 32/33/31
f 32/33/31 4/5/31 8/9/31
f 8/9/31 12/13/31 16/17/31
f 16/17/31 20/21/31 24/25/31
f 24/25/31 28/38/31 32/33/31
f 32/33/31 8/9/31 16/17/31
