# Blender 3.6.2
# www.blender.org
mtllib Cone1.mtl
o Cone1
v 2.549067 0.000000 3.007894
v 2.579719 0.000000 3.010913
v 2.609192 0.000000 3.019854
v 2.636355 0.000000 3.034373
v 2.660163 0.000000 3.053911
v 2.679703 0.000000 3.077720
v 2.694221 0.000000 3.104883
v 2.703162 0.000000 3.134356
v 2.706181 0.000000 3.165008
v 2.703162 0.000000 3.195659
v 2.694221 0.000000 3.225132
v 2.679703 0.000000 3.252295
v 2.660163 0.000000 3.276104
v 2.636355 0.000000 3.295643
v 2.609192 0.000000 3.310162
v 2.579719 0.000000 3.319102
v 2.549067 0.000000 3.322121
v 2.518416 0.000000 3.319102
v 2.488942 0.000000 3.310162
v 2.461780 0.000000 3.295643
v 2.437971 0.000000 3.276104
v 2.418432 0.000000 3.252295
v 2.403913 0.000000 3.225132
v 2.394973 0.000000 3.195659
v 2.391954 0.000000 3.165008
v 2.394973 0.000000 3.134356
v 2.403913 0.000000 3.104883
v 2.418432 0.000000 3.077720
v 2.437971 0.000000 3.053911
v 2.461780 0.000000 3.034373
v 2.488942 0.000000 3.019854
v 2.518416 0.000000 3.010913
v 2.549067 0.744867 3.165008
vn 0.0959 0.2054 -0.9740
vn 0.2841 0.2054 -0.9365
vn 0.4613 0.2054 -0.8631
vn 0.6209 0.2054 -0.7565
vn 0.7565 0.2054 -0.6209
vn 0.8631 0.2054 -0.4613
vn 0.9365 0.2054 -0.2841
vn 0.9740 0.2054 -0.0959
vn 0.9740 0.2054 0.0959
vn 0.9365 0.2054 0.2841
vn 0.8631 0.2054 0.4613
vn 0.7565 0.2054 0.6209
vn 0.6209 0.2054 0.7565
vn 0.4614 0.2054 0.8631
vn 0.2841 0.2054 0.9365
vn 0.0959 0.2054 0.9740
vn -0.0959 0.2054 0.9740
vn -0.2841 0.2054 0.9365
vn -0.4614 0.2054 0.8631
vn -0.6209 0.2054 0.7565
vn -0.7565 0.2054 0.6209
vn -0.8631 0.2054 0.4613
vn -0.9365 0.2054 0.2841
vn -0.9740 0.2054 0.0959
vn -0.9740 0.2054 -0.0959
vn -0.9365 0.2054 -0.2841
vn -0.8631 0.2054 -0.4613
vn -0.7565 0.2054 -0.6209
vn -0.6209 0.2054 -0.7565
vn -0.4613 0.2054 -0.8631
vn -0.0000 -1.0000 -0.0000
vn -0.2841 0.2054 -0.9365
vn -0.0959 0.2054 -0.9740
vt 0.734780 0.148423
vt 0.674047 0.766153
vt 0.715352 0.169917
vt 0.695764 0.191356
vt 0.675981 0.212795
vt 0.655967 0.234292
vt 0.635696 0.255908
vt 0.615143 0.277707
vt 0.594288 0.299751
vt 0.573118 0.322099
vt 0.551627 0.344804
vt 0.529819 0.367908
vt 0.507712 0.391435
vt 0.485338 0.415391
vt 0.462745 0.439758
vt 0.440000 0.464491
vt 0.417184 0.489522
vt 0.394390 0.514760
vt 0.371713 0.540105
vt 0.349246 0.565449
vt 0.327067 0.590691
vt 0.305237 0.615742
vt 0.283791 0.640533
vt 0.262743 0.665013
vt 0.242085 0.689149
vt 0.221790 0.712929
vt 0.201815 0.736352
vt 0.182110 0.759429
vt 0.162616 0.782180
vt 0.143273 0.804631
vt 0.124022 0.826813
vt 0.104805 0.848761
vt 0.754090 0.126823
vt 0.085566 0.870514
vt 0.066256 0.892114
vt 0.870339 -0.007339
vt 0.850634 0.015738
vt 0.831140 0.038490
vt 0.811797 0.060941
vt 0.792547 0.083123
vt 0.773329 0.105071
s 0
f 1/1/1 33/2/1 2/3/1
f 2/3/2 33/2/2 3/4/2
f 3/4/3 33/2/3 4/5/3
f 4/5/4 33/2/4 5/6/4
f 5/6/5 33/2/5 6/7/5
f 6/7/6 33/2/6 7/8/6
f 7/8/7 33/2/7 8/9/7
f 8/9/8 33/2/8 9/10/8
f 9/10/9 33/2/9 10/11/9
f 10/11/10 33/2/10 11/12/10
f 11/12/11 33/2/11 12/13/11
f 12/13/12 33/2/12 13/14/12
f 13/14/13 33/2/13 14/15/13
f 14/15/14 33/2/14 15/16/14
f 15/16/15 33/2/15 16/17/15
f 16/17/16 33/2/16 17/18/16
f 17/18/17 33/2/17 18/19/17
f 18/19/18 33/2/18 19/20/18
f 19/20/19 33/2/19 20/21/19
f 20/21/20 33/2/20 21/22/20
f 21/22/21 33/2/21 22/23/21
f 22/23/22 33/2/22 23/24/22
f 23/24/23 33/2/23 24/25/23
f 24/25/24 33/2/24 25/26/24
f 25/26/25 33/2/25 26/27/25
f 26/27/26 33/2/26 27/28/26
f 27/28/27 33/2/27 28/29/27
f 28/29/28 33/2/28 29/30/28
f 29/30/29 33/2/29 30/31/29
f 30/31/30 33/2/30 31/32/30
f 16/17/31 24/25/31 32/33/31
f 31/32/32 33/2/32 32/34/32
f 32/34/33 33/2/33 1/35/33
f 32/33/31 1/1/31 2/3/31
f 2/3/31 3/4/31 4/5/31
f 4/5/31 5/6/31 6/7/31
f 6/7/31 7/8/31 8/9/31
f 8/9/31 9/10/31 10/11/31
f 10/11/31 11/12/31 12/13/31
f 12/13/31 13/14/31 14/15/31
f 14/15/31 15/16/31 16/17/31
f 16/17/31 17/18/31 18/19/31
f 18/19/31 19/20/31 20/21/31
f 20/21/31 21/22/31 22/23/31
f 22/23/31 23/24/31 24/25/31
f 24/25/31 25/26/31 26/36/31
f 26/36/31 27/37/31 28/38/31
f 28/38/31 29/39/31 30/40/31
f 30/40/31 31/41/31 32/33/31
f 32/33/31 2/3/31 4/5/31
f 4/5/31 6/7/31 8/9/31
f 8/9/31 10/11/31 12/13/31
f 12/13/31 14/15/31 16/17/31
f 16/17/31 18/19/31 20/21/31
f 20/21/31 22/23/31 24/25/31
f 24/25/31 26/36/31 28/38/31
f 28/38/31 30/40/31 32/33/31
f 32/33/31 4/5/31 8/9/31
f 8/9/31 12/13/31 16/17/31
f 16/17/31 20/21/31 24/25/31
f 24/25/31 28/38/31 32/33/31
f 32/33/31 8/9/31 16/17/31
