# Blender 3.6.2
# www.blender.org
mtllib Signs2.mtl
o Signs2
v -1.807635 1.565184 -8.076083
v -1.807635 3.565184 -8.076083
v -1.807635 1.565184 -8.332722
v -1.807635 3.565184 -8.332722
v -0.525733 1.565184 -8.076083
v -0.525733 3.565184 -8.076083
v -0.525733 1.565184 -8.332722
v -0.525733 3.565184 -8.332722
v -1.807635 3.845010 -8.076083
v -1.807635 6.603696 -8.076083
v -1.807635 3.845010 -8.332722
v -1.807635 6.603696 -8.332722
v -0.525733 3.845010 -8.076083
v -0.525733 6.603696 -8.076083
v -0.525733 3.845010 -8.332722
v -0.525733 6.603696 -8.332722
vn -1.0000 -0.0000 -0.0000
vn -0.0000 -0.0000 -1.0000
vn 1.0000 -0.0000 -0.0000
vn -0.0000 -0.0000 1.0000
vn -0.0000 -1.0000 -0.0000
vn -0.0000 1.0000 -0.0000
vt 0.333295 0.000115
vt 0.166705 0.166705
vt 0.166705 0.000115
vt 0.333295 0.166705
vt 0.166705 0.333295
vt 0.333295 0.333295
vt 0.166705 0.499885
vt 0.748931 0.510920
vt 0.253464 0.303295
vt 0.444249 0.213260
vt 0.000115 0.499885
vt 0.000115 0.333295
vt 0.499885 0.333295
vt 0.333295 0.499885
vt 0.833295 0.000115
vt 0.666705 0.166705
vt 0.666705 0.000115
vt 0.833295 0.166705
vt 0.666705 0.333295
vt 0.833295 0.333295
vt 0.666705 0.499885
vt 0.673724 0.713869
vt 0.062679 0.393330
vt 0.253464 0.303295
vt 0.500115 0.499885
vt 0.500115 0.333295
vt 0.999885 0.333295
vt 0.833295 0.499885
vt 0.558146 0.600954
vt 0.499885 0.499885
vt 0.482939 0.803904
vt 0.999885 0.499885
s 0
f 2/1/1 3/2/1 1/3/1
f 4/4/2 7/5/2 3/2/2
f 8/6/3 5/7/3 7/5/3
f 6/8/4 1/9/4 5/10/4
f 7/5/5 1/11/5 3/12/5
f 4/13/6 6/14/6 8/6/6
f 10/15/1 11/16/1 9/17/1
f 12/18/2 15/19/2 11/16/2
f 16/20/3 13/21/3 15/19/3
f 14/22/4 9/23/4 13/24/4
f 15/19/5 9/25/5 11/26/5
f 12/27/6 14/28/6 16/20/6
f 2/1/1 4/4/1 3/2/1
f 4/4/2 8/6/2 7/5/2
f 8/6/3 6/14/3 5/7/3
f 6/8/4 2/29/4 1/9/4
f 7/5/5 5/7/5 1/11/5
f 4/13/6 2/30/6 6/14/6
f 10/15/1 12/18/1 11/16/1
f 12/18/2 16/20/2 15/19/2
f 16/20/3 14/28/3 13/21/3
f 14/22/4 10/31/4 9/23/4
f 15/19/5 13/21/5 9/25/5
f 12/27/6 10/32/6 14/28/6
